<?xml version="1.0" encoding="utf-8"?>
<!-- Generator: Adobe Illustrator 16.0.0, SVG Export Plug-In . SVG Version: 6.00 Build 0)  -->
<!DOCTYPE svg PUBLIC "-//W3C//DTD SVG 1.1//EN" "http://www.w3.org/Graphics/SVG/1.1/DTD/svg11.dtd">
<svg version="1.1" id="Ebene_1" xmlns="http://www.w3.org/2000/svg" xmlns:xlink="http://www.w3.org/1999/xlink" x="0px" y="0px"
	 width="408.957px" height="143.386px" viewBox="0 0 408.957 143.386" enable-background="new 0 0 408.957 143.386"
	 xml:space="preserve">
<g>
	<path fill="#1D1D1B" d="M193.035,61.68c0-0.305-0.144-1.014-1.498-1.014h-0.001c-1.354,0.045-2.575,0.066-3.665,0.066h-2.325
		c-2.514-3.347-4.778-6.297-6.736-8.772c-2-2.527-3.638-4.581-4.872-6.111c-2.059-3.064-3.102-5.605-3.102-7.553
		c0-2.396,1.188-4.394,3.651-6.118c5.068-3.791,11.655-5.713,19.576-5.713c1.455,0,2.849,0.065,4.142,0.193
		c1.262,0.127,2.453,0.36,3.561,0.701c1.726,0.481,3.127,1.373,4.155,2.636c1.119,1.439,1.687,3.19,1.687,5.205
		c0,0.707-0.042,1.358-0.119,1.906c-0.098,0.528-0.145,0.917-0.145,1.189v0.372l0.076,0.155c0.243,0.498,0.645,0.552,0.806,0.552
		c0.146,0,0.493-0.045,0.739-0.433c0.219-0.249,0.421-0.608,0.616-1.094c0.281-0.705,0.483-1.408,0.603-2.093
		c0.116-0.68,0.176-1.354,0.176-2.005c0-2.027-0.596-3.961-1.824-5.818c-1.265-1.5-2.768-2.572-4.499-3.197
		c-2.173-0.679-4.93-1.022-8.194-1.022c-8.845,0-16.671,2.146-23.263,6.377c-3.288,2.114-4.955,4.809-4.955,8.009
		c0,2.836,1.337,6.025,3.968,9.472c2.15,2.897,4.104,5.541,5.86,7.934c1.444,1.969,2.8,3.797,4.067,5.483
		c-4.235,0.403-8.166,1.021-11.701,1.84c-3.91,0.906-7.468,2.062-10.562,3.431c-4.151,1.747-6.256,4.13-6.256,7.082
		c0,3.153,1.988,5.431,5.896,6.765c2.486,0.904,5.498,1.362,8.951,1.362c2.316,0,4.594-0.227,6.771-0.674
		c2.165-0.446,4.305-1.103,6.364-1.953c4.981-2.096,7.507-5.542,7.507-10.243c0-1.92-0.467-3.826-1.389-5.68
		c0.604-0.033,1.502-0.065,2.833-0.091C191.808,62.773,193.035,62.666,193.035,61.68z M159.473,77.817
		c-0.891-0.232-1.695-0.664-2.393-1.285c-0.969-0.856-1.46-1.643-1.46-2.337c0-1.661,1.745-3.386,5.198-5.133
		c3.259-1.715,7.513-3.109,12.653-4.146c1.2-0.258,2.622-0.525,4.348-0.818c1.569-0.265,3.354-0.521,5.314-0.766
		c1.22,1.588,1.813,3.293,1.813,5.198c0,3.059-1.783,5.446-5.442,7.296c-1.915,0.938-3.924,1.661-5.971,2.151
		c-2.039,0.488-4.219,0.736-6.478,0.736c-1.333,0-2.637-0.065-3.876-0.193C161.958,78.396,160.714,78.16,159.473,77.817z"/>
	<path fill="#1D1D1B" d="M207.214,59c-1.123,0.95-2.196,1.804-3.188,2.537l-2.863,2.115l3.473-0.78c1.848-0.415,3.425-1.088,4.688-2
		c1.231-0.888,2.255-1.831,3.033-2.793c0.817-0.97,1.231-1.952,1.231-2.92c0-0.974-0.296-1.805-0.878-2.469
		c-0.553-0.634-1.281-1.087-2.196-1.356c-0.875-0.215-1.862-0.216-2.854,0.083c-1.103,0.368-2.31,0.958-3.586,1.756
		c-1.268,0.793-2.545,1.773-3.796,2.913c-1.247,1.135-2.478,2.423-3.659,3.827c-1.183,1.405-2.259,2.912-3.198,4.478
		c-0.941,1.57-1.728,3.21-2.334,4.872c-0.615,1.688-0.974,3.378-1.066,5.065v0.263c0,0.917,0.231,1.794,0.687,2.603
		c0.483,0.872,1.11,1.622,1.865,2.23c0.747,0.603,1.568,1.056,2.368,1.317c0.579,0.264,1.171,0.396,1.759,0.396
		c0.263,0,0.533-0.026,0.776-0.075c0.886-0.141,1.78-0.388,2.661-0.735c0.855-0.338,1.695-0.713,2.496-1.113
		c0.811-0.404,1.564-0.827,2.239-1.256c0.638-0.402,1.212-0.788,1.707-1.146c0.498-0.266,0.751-0.613,0.751-1.035
		c0-0.205-0.071-0.38-0.142-0.524l-0.11-0.23l-0.229-0.114c-0.45-0.225-0.923-0.195-1.497,0.151
		c-1.188,0.679-2.603,1.326-4.205,1.926c-1.582,0.59-3.086,0.975-4.382,1.138h-0.461c-0.377,0-0.714-0.037-1.072-0.124
		c-0.444-0.067-0.813-0.223-1.131-0.473c-0.308-0.242-0.541-0.596-0.728-1.115c-0.18-0.433-0.271-0.979-0.271-1.622l-0.003-0.399
		c0.165-1.986,0.753-3.877,1.749-5.619c1.035-1.812,2.061-3.404,3.044-4.73l0.749-1.003c1.473-1.645,3.04-3.234,4.659-4.725
		c1.598-1.47,3.202-2.666,4.752-3.545c0.565-0.302,1.066-0.473,1.492-0.506c0.311,0,0.448,0.101,0.478,0.126
		c0.104,0.123,0.155,0.316,0.155,0.573l0.003,0.136c-0.034,0.403-0.24,0.911-0.591,1.475C209.1,57.264,208.301,58.081,207.214,59z"
		/>
	<path fill="#1D1D1B" d="M261.83,70.811h-0.447c-0.36,0-0.705,0.197-1.211,0.704c-0.476,0.519-0.94,1.005-1.394,1.459
		c-0.435,0.435-0.932,0.867-1.467,1.28c-1.002,0.751-2.076,1.361-3.221,1.828c-0.864,0.393-1.69,0.592-2.456,0.592
		c-0.159,0-0.296-0.015-0.501-0.061c-0.845-0.105-1.516-0.521-2.058-1.281c-0.515-0.697-0.775-1.833-0.775-3.376v-0.642
		c0.041-1.741,0.312-3.742,0.806-5.947c0.461-2.069,1.035-4.085,1.707-5.995c6.518-1.255,13.01-2.783,19.302-4.544
		c6.432-1.801,12.87-3.936,19.133-6.345c18.358-6.929,29.817-14.538,34.07-22.639c0.777-1.601,1.288-3.319,1.521-5.129
		c0.046-0.468,0.069-0.936,0.069-1.391c0-4.953-2.373-9.446-7.042-13.344C313.31,2.013,307.958,0,301.96,0
		c-0.508,0-1.018,0.023-1.497,0.067c-5.622,0.357-11.218,2.345-16.637,5.905c-4.554-0.611-9.391-0.056-14.127,1.644
		c-6.478,2.263-12.913,6.271-19.129,11.91c-6.13,5.563-12.329,13.026-18.43,22.186c-4.287,0.963-7.575,2.633-9.827,5.028
		c-0.159,0.215-0.293,0.428-0.397,0.638c-0.141,0.279-0.212,0.615-0.212,0.997c0,0.776,0.293,1.568,0.87,2.354
		c0.591,0.807,1.295,1.303,2.088,1.475c0.312,0.069,0.604,0.125,0.875,0.168c-2.918,5.042-5.56,9.744-7.859,13.99
		c-2.438,4.503-4.562,8.671-6.344,12.472c-0.069,0.21-0.104,0.46-0.104,0.765c0,1.627,0.893,1.803,1.276,1.803
		c0.084,0,0.189-0.011,0.305-0.048v0.515l1.326-1.592c1.949-2.34,4.789-5.312,8.44-8.832c4.32-4.148,7.722-6.9,10.157-8.207
		c0.356-0.227,0.673-0.346,0.916-0.346c0.147,0,0.223,0.025,0.217,0.015c0,0,0.021,0.041,0.021,0.158
		c0,0.176-0.033,0.306-0.111,0.403c-3.909,5.154-6.325,9.569-7.178,13.117c-0.059,0.233-0.088,0.472-0.088,0.707
		c0,1.029,0.517,1.959,1.484,2.718c0.974,0.924,1.968,1.392,2.954,1.392c2.752,0,6.957-2.339,12.915-7.202l0.301-0.302
		c0.17,1.682,0.645,3.013,1.417,3.966c0.954,1.182,2.181,1.882,3.622,2.08c1.297,0.218,2.978-0.038,4.693-0.772
		c1.649-0.688,3.293-1.752,4.893-3.168c0.5-0.454,1.033-0.977,1.583-1.55c0.575-0.598,1.032-1.11,1.41-1.584
		c0.388-0.517,0.546-0.856,0.546-1.176c0-0.169-0.049-0.42-0.28-0.656L261.83,70.811z M224.799,48.34
		c0.824-0.948,1.865-1.82,3.093-2.591c0.741-0.465,1.588-0.885,2.528-1.255c-0.415,0.648-0.833,1.302-1.253,1.962
		c-0.733,1.147-1.457,2.296-2.171,3.443c-0.081-0.009-0.173-0.019-0.273-0.031c-0.369-0.042-0.855-0.106-1.468-0.195
		c-0.8-0.108-0.8-0.389-0.8-0.574C224.455,48.816,224.553,48.588,224.799,48.34z M280.992,7.987
		c-10.132,7.773-19.983,21.414-29.307,40.586c-2.249,0.412-4.411,0.748-6.435,1c-3.66,0.455-7.341,0.687-10.94,0.687
		c-0.854,0-1.694-0.021-2.496-0.065c-0.376-0.02-0.744-0.04-1.104-0.061c6.156-10.312,12.554-18.891,19.023-25.509
		c6.659-6.811,13.712-11.796,20.966-14.818C274.005,8.417,277.438,7.803,280.992,7.987z M321.635,19.435
		c-0.084,0.711-0.211,1.397-0.377,2.042c-0.164,0.638-0.395,1.298-0.671,1.93c-3.548,7.18-12.797,14.086-27.493,20.526
		c-6.222,2.742-12.953,5.214-20.005,7.347c-6.631,2.006-13.763,3.825-21.221,5.412l0.224-0.667c0.72-1.654,1.517-3.402,2.42-5.313
		c10.304-2.014,20.811-5.518,31.23-10.417c4.921-2.281,8.673-5.106,11.146-8.39c2.333-3.019,3.516-6.275,3.516-9.681
		c0-4.469-1.906-8.362-5.67-11.576c-2-1.674-4.277-2.932-6.788-3.753c4.228-2.56,8.453-3.952,12.582-4.144h1.036
		c5.631,0,10.499,1.691,14.48,5.036c3.749,3.042,5.65,6.524,5.65,10.353C321.695,18.558,321.674,18.997,321.635,19.435z
		 M297.455,20.643c0,5.527-4.484,10.938-13.328,16.083c-4.254,2.474-8.718,4.629-13.268,6.405
		c-4.551,1.777-9.349,3.274-14.252,4.446c-0.22,0.05-0.439,0.098-0.658,0.145c1.206-2.439,2.433-4.784,3.653-6.987
		c2.78-5.021,5.867-9.882,9.177-14.455c5.533-7.799,11.11-13.74,16.581-17.666c2.497,0.617,4.81,1.678,6.891,3.165
		C295.753,14.153,297.455,17.054,297.455,20.643z M244.1,71.891v0.475l-0.401-0.475l-0.542,0.555
		c-0.158,0.062-0.321,0.151-0.537,0.297c-5.878,4.447-8.729,5.381-10.087,5.381c-0.869,0-1.028-0.324-1.028-0.963
		c0-0.994,0.544-3.167,3.13-7.864c0.911-1.605,1.791-3.067,2.613-4.345c0.816-1.27,1.599-2.366,2.271-3.202
		c0.257-0.257,0.286-0.613,0.286-0.859c0-0.572-0.284-1.115-0.894-1.653c-0.496-0.373-0.911-0.546-1.306-0.546h-0.227l-0.092,0.023
		c-1.686,0.434-2.366,0.71-2.698,0.934c-1.101,0.178-3.212,1.03-8.401,5.148c-1.669,1.405-3.314,2.828-4.89,4.229
		c-1.039,0.923-2.049,1.855-3.019,2.784c1.525-2.74,3.029-5.409,4.497-7.978c2.201-3.852,4.379-7.592,6.479-11.124
		c0.566,0.031,1.146,0.055,1.74,0.073c6.341,0.192,12.812-0.302,19.311-1.325c-0.951,2.021-1.885,4.067-2.782,6.102l-0.063,0.145
		v0.201c-1.078,2.521-1.936,5.037-2.549,7.489C244.372,67.637,244.1,69.823,244.1,71.891z"/>
	<path fill="#1D1D1B" d="M356.438,68.616c0.47-0.896,0.976-1.747,1.505-2.53c0.468-0.692,0.911-1.329,1.332-1.908
		c2.859-0.243,3.883-0.34,5.179-0.726c1.996-0.593,3.747-1.276,5.68-2.218c1.849-0.9,3.157-2.049,3.867-3.377
		c0.424-0.688,0.639-1.441,0.639-2.237l-0.005-0.413c-0.1-0.892-0.366-1.712-0.79-2.436c-0.443-0.756-1.062-1.35-1.86-1.774
		c-0.813-0.408-1.831-0.474-2.853-0.092c-1.599,0.64-3.401,1.751-5.358,3.304c-1.94,1.539-3.817,3.393-5.578,5.51
		c-1.763,2.118-3.279,4.438-4.508,6.896c-0.461,0.921-0.849,1.871-1.18,2.893c-0.227,0.058-0.459,0.117-0.696,0.179
		c1.381-2.302,2.079-4.456,2.079-6.424c0-2.325-0.953-5.098-5.493-5.098c-1.187,0-2.526,0.161-3.98,0.479
		c-0.903,0.197-1.893,0.477-2.958,0.834c1.285-2.18,2.53-4.197,3.715-6.017c1.509-2.318,2.936-4.463,4.243-6.382
		c0.166-0.249,0.262-0.359,0.303-0.401c0.382-0.17,0.614-0.545,0.614-1.003c0-0.488-0.338-1.014-1.08-1.014
		c-0.182,0-0.402,0.026-0.674,0.081l-0.123,0.036c-2.004,0.773-2.508,1.252-2.726,1.6c-2.284,3.428-4.263,6.416-5.931,8.964
		c-1.605,2.449-2.946,4.492-4.022,6.129c-2.186,0.907-3.363,1.776-3.699,2.728l-0.043,0.447c0,0.589,0.309,1.215,0.939,1.904
		c-0.874,1.559-1.725,3.138-2.535,4.699c-0.269,0.518-0.55,1.021-0.831,1.525l-0.338,0.611c-3.349,1.148-6.235,2.276-8.513,3.327
		c-0.221,0.074-0.416,0.148-0.582,0.223c0.073-0.197,0.212-0.468,0.471-0.831c1.541-2.514,2.912-4.887,4.072-7.055
		c1.142-2.134,2.164-4.187,3.041-6.104c0.238-0.279,0.449-0.532,0.633-0.756c0.18-0.219,0.35-0.41,0.51-0.57l0.148-0.148l0.05-0.204
		c0.06-0.241,0.088-0.45,0.088-0.639c0-1.032-0.641-1.673-1.673-1.673c-0.338,0-0.695,0.094-1.044,0.27
		c-2.268,1.066-4.778,2.585-7.463,4.515c-2.655,1.909-5.557,4.275-8.652,7.062c0.025-0.179,0.119-0.391,0.306-0.677
		c0.966-1.889,1.715-3.431,2.226-4.584c0.735-1.666,0.82-2.324,0.82-2.675c0-0.856-0.435-1.478-1.134-1.686
		c-1.388-0.546-3.601,0.115-6.662,2.035c-3.312,2.042-6.227,4.264-8.678,6.613c1.175-1.996,2.509-3.86,3.983-5.562
		c1.941-2.341,2.408-2.732,2.495-2.791l0.097-0.065c0.151-0.121,0.611-0.489,0.611-1.047c0-0.166-0.048-0.414-0.274-0.651
		l-0.213-0.155c-0.386-0.189-0.84-0.195-1.59,0.02l-0.104,0.038c-0.55,0.251-0.971,0.501-1.339,0.811
		c-0.717,0.717-1.601,1.736-2.626,3.029c-1.015,1.279-2.178,2.866-3.455,4.716c-1.255,1.816-2.388,3.495-3.369,4.988
		c-0.978,1.488-1.788,2.851-2.38,3.999c-0.516,0.824-0.771,1.382-0.832,1.809l-0.007,0.96l0.021,0.177
		c0.188,0.776,0.756,0.837,0.992,0.837l0.312-0.031l0.211-0.181c0.003-0.003,0.077-0.065,0.341-0.196
		c0.229-0.115,0.569-0.255,1.05-0.431c1.351-0.514,1.76-0.841,1.935-1.136c0.742-1.091,1.422-2.044,2.021-2.835
		c0.598-0.791,1.137-1.449,1.612-1.967c1.81-2.068,3.996-4.168,6.52-6.256c1.11-0.982,2.062-1.751,2.829-2.284
		c0.728-0.505,1.301-0.866,1.705-1.075c0.421-0.136,0.555-0.142,0.568-0.142c0.125,0,0.163,0.025,0.164,0.025
		c0.016,0.015,0.074,0.126,0.074,0.41c0,0.334-0.065,0.645-0.229,1.026c-0.512,1.617-1.236,3.315-2.154,5.045
		c-0.921,1.732-2.037,3.565-3.318,5.448c-0.241,0.272-0.294,0.546-0.294,0.732c0,0.273,0.097,0.675,0.548,1.061
		c0.385,0.449,0.785,0.546,1.059,0.546c0.203,0,0.404-0.048,0.649-0.172c0.198-0.119,0.454-0.245,0.772-0.385
		c0.354-0.155,0.819-0.366,1.335-0.607c0.553-0.199,0.97-0.403,1.273-0.625c0.288-0.209,0.482-0.369,0.587-0.476l0.081-0.098
		c1.795-2.563,6.001-6.5,12.483-11.687c0.548-0.41,0.802-0.442,0.867-0.442c0.074,0,0.119,0.013,0.112,0.007
		c0.001,0.001,0.06,0.083,0.06,0.362c0,0.45-0.129,0.936-0.412,1.513c-1.5,3.944-4.054,8.152-7.588,12.507l-0.105,0.129l-0.04,0.162
		c-0.103,0.409-0.154,0.803-0.154,1.17c0,0.114,0.005,0.225,0.015,0.333l-1.308,1.309c-0.274,0.271-0.419,0.615-0.419,0.993
		c0,0.896,0.604,1.475,1.54,1.475c0.311,0,0.639-0.102,1.049-0.352c3.38-2.585,7.519-4.908,12.323-6.919
		c-0.389,0.669-0.724,1.285-1,1.838c-0.354,0.706-0.684,1.378-0.993,2.018c-0.304,0.63-0.62,1.262-0.945,1.893
		c-0.272,0.526-0.568,1.107-0.888,1.742c-3.602,0.063-7.228,0.385-10.785,0.958c-3.701,0.594-7.537,1.407-11.404,2.42
		c-0.189,0.051-0.38,0.104-0.573,0.157c0.485-0.509,0.943-1.015,1.372-1.515c1.436-1.681,2.683-3.299,3.737-4.86
		c0.246-0.434,0.361-0.781,0.361-1.095c0-0.37-0.159-0.604-0.292-0.733l-0.219-0.214h-0.306c-0.393,0-0.745,0.237-1.383,0.949
		c-1.032,1.333-2.27,2.778-3.679,4.296c-1.398,1.506-3.001,2.988-4.761,4.404c-0.315,0.253-0.62,0.489-0.926,0.726
		c-3.014,1.092-5.796,2.294-8.271,3.574c-1.122,0.581-2.274,1.227-3.516,1.97c-0.194,0.012-0.389,0.022-0.585,0.022
		c-1.401,0-2.509-0.312-3.291-0.928c-0.738-0.58-1.097-1.475-1.097-2.736v-0.658c0-0.132,0.018-0.281,0.059-0.492
		c0.168-1.224,0.515-2.762,1.031-4.571c0.521-1.821,1.148-3.768,1.864-5.785c0.717-2.02,1.519-4.042,2.384-6.01
		c0.858-1.954,1.753-3.71,2.657-5.219c1.177-1.962,2.401-3.914,3.64-5.804c1.252-1.912,2.515-3.856,3.79-5.834l0.12-0.252v-0.221
		c0-0.213-0.065-0.438-0.238-0.78c-0.363-0.604-0.848-0.694-1.104-0.694c-0.472,0-0.762,0.189-0.981,0.413
		c-0.223,0.279-0.623,0.473-1.19,0.575h-0.134c-0.192,0-0.492-0.019-0.9-0.056c-0.531-0.173-1.062-0.315-1.582-0.423
		c-1.11-0.231-2.258-0.248-3.322,0.005c-0.484,0.114-0.934,0.242-1.396,0.398c-1.758,0.721-3.668,1.801-5.678,3.208
		c-2.006,1.403-4.167,3.261-6.424,5.519c-5.068,5.067-7.532,9.162-7.532,12.519c0,2.757,1.677,3.055,2.397,3.055
		c0.589,0,1.213-0.209,1.895-0.63c2.788-1.637,6.17-4.121,10.057-7.391c1.926-1.662,3.653-3.223,5.133-4.637
		c0.258-0.245,0.509-0.489,0.755-0.732c-0.03,0.056-0.06,0.112-0.09,0.168c-0.733,1.379-1.481,2.875-2.225,4.448
		c-0.622,1.333-1.252,2.884-1.871,4.608c-0.612,1.705-1.192,3.457-1.725,5.207c-0.533,1.756-0.97,3.428-1.3,4.968
		c-0.342,1.597-0.53,2.844-0.576,3.846v0.396c0,1.056,0.172,2.034,0.499,2.872c0.364,1.095,1.054,1.942,2,2.489
		c0.592,0.406,1.248,0.766,1.956,1.07c-2.059,1.394-3.953,2.847-5.645,4.33c-7.123,6.137-10.734,13.331-10.734,21.384
		c0,2.796,0.425,5.396,1.263,7.73c0.838,2.331,2.11,4.545,3.793,6.591c3.428,3.977,7.63,5.992,12.491,5.992
		c3.005,0,6.157-0.849,9.386-2.529c5.743-3.162,11.492-8.914,17.088-17.098c5.561-8.132,11.071-18.951,16.38-32.157l1.055-2.636
		c0.285-0.713,0.57-1.412,0.855-2.096c1.357,0.013,2.556,0.074,3.566,0.185c0.183,0.051,0.365,0.077,0.546,0.077
		c0.804,0,1.344-0.513,1.344-1.276c0-0.479-0.284-1.09-1.655-1.272c-0.888-0.099-1.846-0.162-2.86-0.188
		c1.193-2.889,2.347-5.341,3.434-7.299c1.208-2.181,2.359-4.078,3.422-5.641c1.061-1.559,2.071-2.965,3.005-4.18
		c0.916-1.192,1.793-2.484,2.608-3.844c1.554-0.809,2.949-1.424,4.151-1.832c1.214-0.411,2.296-0.619,3.218-0.619
		c2.215,0,3.202,0.866,3.202,2.808c0,2.513-1.022,4.976-3.041,7.323c-4.115,1.373-7.379,2.495-9.704,3.334
		c-2.48,0.896-3.927,1.494-4.552,1.879l-0.137,0.108c-0.316,0.316-0.483,0.728-0.483,1.188c0,1.254,0.724,2.002,1.936,2.002
		l0.285-0.005c5.738-0.668,10.56-2.758,14.333-6.211c1.195-0.397,2.336-0.772,3.428-1.125c-0.114,0.657-0.188,1.287-0.221,1.913
		v0.264c0,0.926,0.235,1.787,0.687,2.537c0.479,0.865,1.089,1.621,1.812,2.245c0.731,0.634,1.548,1.104,2.375,1.376
		c0.903,0.379,1.836,0.466,2.586,0.312c0.839-0.14,1.72-0.386,2.616-0.731c0.871-0.335,1.725-0.71,2.538-1.116
		c0.835-0.419,1.567-0.829,2.24-1.256c0.69-0.438,1.264-0.824,1.697-1.144c0.572-0.345,0.692-0.755,0.692-1.038
		c0-0.165-0.046-0.334-0.146-0.532l-0.113-0.228l-0.229-0.111c-0.463-0.228-0.929-0.187-1.483,0.15
		c-1.148,0.638-2.543,1.265-4.147,1.863c-1.565,0.585-3.058,0.99-4.438,1.203h-0.404c-0.379,0-0.717-0.036-1.071-0.122
		c-0.445-0.068-0.815-0.224-1.133-0.474c-0.304-0.239-0.543-0.603-0.728-1.118c-0.18-0.429-0.271-0.974-0.271-1.62l-0.001-0.431
		c0.04-0.974,0.225-1.93,0.551-2.842C355.566,70.434,355.973,69.502,356.438,68.616z M361.443,61.473
		c1.089-1.124,2.227-2.226,3.397-3.288c1.618-1.47,3.235-2.667,4.788-3.55c0.567-0.301,1.068-0.472,1.489-0.507l-0.062-0.747
		l0.066,0.75c0.312,0,0.448,0.1,0.477,0.123c0.104,0.125,0.156,0.319,0.156,0.576l0.003,0.135c-0.034,0.404-0.24,0.912-0.602,1.491
		c-0.474,0.711-1.133,1.379-1.96,1.983c-0.857,0.628-1.822,1.189-2.867,1.67c-1.038,0.479-2.16,0.849-3.335,1.101
		C362.471,61.322,361.953,61.41,361.443,61.473z M281.472,140.437c-2.088,0-4.065-0.37-5.879-1.1
		c-1.802-0.724-3.478-1.873-4.993-3.431c-3.216-3.132-4.846-6.962-4.846-11.385c0-7.113,3.945-14.08,11.733-20.713
		c3.498-3.065,7.438-5.758,11.711-8.002c4.284-2.25,9.048-4.159,14.156-5.675c3.551-1.04,7.033-1.842,10.351-2.384
		c2.914-0.477,5.858-0.764,8.771-0.854l-0.721,1.661c-0.354,0.819-0.664,1.562-0.912,2.186c-0.997,2.124-1.986,4.313-2.941,6.508
		c-0.937,2.159-1.898,4.315-2.86,6.413c-1.781,3.954-3.632,7.611-5.5,10.87c-1.867,3.257-3.762,6.274-5.634,8.974
		c-5,7.329-9.986,12.369-14.828,14.983C286.744,139.781,284.185,140.437,281.472,140.437z M268.826,76.146
		c-0.194,0-0.436,0-0.436-0.831c0-0.438,0.073-0.861,0.2-1.214c0.594-1.357,1.403-2.803,2.406-4.297
		c1.005-1.497,2.258-3.088,3.719-4.722c3.047-3.343,5.561-5.284,7.465-5.771c0.469-0.116,0.917-0.175,1.334-0.175
		c0.721,0,1.287,0.157,1.731,0.481c0.25,0.184,0.549,0.461,0.526,0.726c-3.094,3.701-6.022,6.884-8.705,9.457
		c-2.675,2.566-5.249,4.629-7.652,6.131C269.19,76.072,268.987,76.146,268.826,76.146z"/>
	<path fill="#1D1D1B" d="M407.087,75.488c-0.417,0-0.868,0.112-1.341,0.335c-0.861,0.407-0.99,1.013-0.99,1.337
		c0,0.471,0.349,0.947,1.014,0.947c0.156,0,0.339,0.025,0.547,0.078c0.127,0.031,0.238,0.096,0.34,0.197
		c0.001,0.001,0.076,0.092,0.076,0.424c0,1.314-1.04,3.768-5.993,7.991c-3.678,3.121-6.752,5.043-9.154,5.718
		c-0.5,0.153-1.068,0.23-1.69,0.23c-1.29,0-2.298-0.398-3.08-1.217c-0.747-0.783-1.11-1.864-1.11-3.303
		c0-0.23,0.021-0.481,0.065-0.813c0.168-2.964,1.453-7.038,3.814-12.103c2.468-5.153,5.275-9.761,8.314-13.659
		c0.489-0.55,0.717-1.022,0.717-1.486c0-0.601-0.375-1.067-0.934-1.224c-0.785-0.312-1.723-0.226-2.839,0.256
		c-0.549,0.199-1.133,0.562-1.783,1.107c-1.249,0.523-3.453,2.056-6.733,4.68c-1.397,1.136-2.789,2.305-4.137,3.475
		c-1.333,1.159-2.627,2.342-3.895,3.567c0.016-0.051,0.037-0.094,0.065-0.128l0.1-0.164c0.859-1.935,1.895-3.863,3.077-5.734
		c1.18-1.867,2.609-3.776,4.211-5.634c0.273-0.273,0.418-0.616,0.418-0.991c0-0.502-0.482-1.006-1.394-0.729
		c-0.546,0.103-0.96,0.233-1.265,0.4c-0.339,0.186-0.61,0.436-0.81,0.744c-0.87,1.047-1.822,2.276-2.828,3.654
		c-1.01,1.381-2.104,2.977-3.249,4.741c-2.422,3.696-4.168,6.675-5.163,8.8c-0.246,0.432-0.361,0.78-0.361,1.097
		c0,0.269,0.079,0.515,0.229,0.72c0.126,0.261,0.426,0.623,1.113,0.623h0.329l0.161-0.018c2.024-0.445,3.23-0.993,3.769-1.694
		c2.56-2.993,5.102-5.701,7.557-8.048c2.439-2.332,4.925-4.391,7.354-6.097c0.233-0.146,0.448-0.216,0.658-0.216
		c0.436,0,0.436,0.083,0.436,0.304c0,0.066-0.008,0.155-0.056,0.218c-1.283,1.771-2.503,3.618-3.626,5.49
		c-1.129,1.885-2.213,3.862-3.216,5.867c-2.538,4.854-3.962,8.961-4.231,12.195c-0.047,0.464-0.069,0.907-0.069,1.327
		c0,2.385,0.603,4.222,1.801,5.47c1.151,1.151,2.571,1.735,4.219,1.735c0.263,0,0.525-0.026,0.739-0.07
		c5.068-0.544,9.828-2.986,14.151-7.264c1.559-1.561,2.87-3.076,3.899-4.506c1.053-1.467,1.798-2.892,2.21-4.219
		c0.292-0.875,0.434-1.577,0.434-2.147C408.957,75.651,407.525,75.488,407.087,75.488z"/>
	<path fill="#1D1D1B" d="M36.934,62.826c1.874-0.053,3.102-0.16,3.102-1.146c0-0.305-0.144-1.014-1.498-1.014h-0.001
		c-1.354,0.045-2.575,0.066-3.665,0.066h-2.325c-2.514-3.347-4.778-6.297-6.736-8.772c-2-2.527-3.638-4.581-4.872-6.111
		c-2.059-3.064-3.102-5.605-3.102-7.553c0-2.396,1.188-4.394,3.651-6.118c5.068-3.791,11.655-5.713,19.576-5.713
		c1.455,0,2.849,0.065,4.142,0.193c1.262,0.127,2.453,0.36,3.561,0.701c1.726,0.481,3.127,1.373,4.155,2.636
		c1.119,1.439,1.687,3.19,1.687,5.205c0,0.707-0.042,1.358-0.119,1.906c-0.098,0.528-0.145,0.917-0.145,1.189v0.372l0.076,0.155
		c0.243,0.498,0.645,0.552,0.806,0.552c0.146,0,0.493-0.045,0.739-0.433c0.219-0.249,0.421-0.608,0.616-1.094
		c0.281-0.705,0.483-1.408,0.603-2.093c0.116-0.68,0.176-1.354,0.176-2.005c0-2.027-0.596-3.961-1.824-5.818
		c-1.265-1.5-2.768-2.572-4.499-3.197c-2.173-0.679-4.93-1.022-8.194-1.022c-8.845,0-16.671,2.146-23.263,6.377
		c-3.288,2.114-4.955,4.809-4.955,8.009c0,2.836,1.337,6.025,3.968,9.472c2.15,2.897,4.104,5.541,5.86,7.934
		c1.444,1.969,2.8,3.797,4.067,5.483c-4.235,0.403-8.166,1.021-11.701,1.84c-3.91,0.906-7.468,2.062-10.562,3.431
		C2.104,68.005,0,70.388,0,73.34c0,3.153,1.988,5.431,5.896,6.765c2.486,0.904,5.498,1.362,8.951,1.362
		c2.316,0,4.594-0.227,6.771-0.674c2.165-0.446,4.305-1.103,6.364-1.953c4.981-2.096,7.507-5.542,7.507-10.243
		c0-1.92-0.467-3.826-1.389-5.68C34.704,62.884,35.603,62.852,36.934,62.826z M6.473,77.817c-0.891-0.232-1.695-0.664-2.393-1.285
		c-0.969-0.856-1.46-1.643-1.46-2.337c0-1.661,1.745-3.386,5.198-5.133c3.259-1.715,7.513-3.109,12.653-4.146
		c1.2-0.258,2.622-0.525,4.348-0.818c1.569-0.265,3.354-0.521,5.314-0.766c1.22,1.588,1.813,3.293,1.813,5.198
		c0,3.059-1.783,5.446-5.442,7.296c-1.915,0.938-3.924,1.661-5.971,2.151c-2.039,0.488-4.219,0.736-6.478,0.736
		c-1.333,0-2.637-0.065-3.876-0.193C8.958,78.396,7.714,78.16,6.473,77.817z"/>
	<path fill="#1D1D1B" d="M84.987,49.552c-0.482-0.361-1.011-0.544-1.569-0.544h-0.264l-0.156,0.017
		c-0.782,0.166-1.68,0.8-2.812,1.981c-1.184,1.184-1.734,2.126-1.734,2.967c0,0.554,0.269,1.532,2.065,1.859l0.397,0.012
		c0.82,0,1.699-0.455,2.67-1.374c1.196-1.054,1.874-2.005,2.067-2.904c0.064-0.159,0.097-0.323,0.097-0.49
		c0-0.51-0.229-0.998-0.679-1.451L84.987,49.552z"/>
	<path fill="#1D1D1B" d="M155.212,82.487c-0.465-0.515-0.986-0.948-1.549-1.291c-0.581-0.354-1.166-0.586-1.765-0.694
		c-0.626-0.091-1.342-0.168-2.188-0.235c-0.829-0.068-1.814-0.103-2.926-0.103c-5.613,0-11.635,0.53-17.917,1.576
		c1.188-3.463,2.229-6.535,3.116-9.22c0.97-2.933,1.803-5.442,2.499-7.527c0.421-0.59,0.687-1.196,0.789-1.805l0.011-0.125
		c0-0.545-0.212-1.049-0.63-1.498c-0.343-0.368-0.732-0.625-1.162-0.765c-0.17-0.108-0.41-0.199-0.737-0.199h-0.197
		c-4.56,0-9.48,1.634-14.63,4.858c-5.233,3.311-8.96,7.181-11.064,11.481c-0.451,0.854-0.68,1.659-0.68,2.393
		c0,0.81,0.187,1.406,0.46,1.846c-1.621,0.296-3.516,0.562-5.188,0.595l-0.256,0.003c-1.685,0-2.841-0.35-3.254-0.983
		c-0.396-0.607-0.067-1.409-0.071-1.409c0,0,0,0,0,0.001c0.03-0.057,0.957-1.774,2.03-4.075c2.469-5.154,5.276-9.762,8.316-13.66
		c0.488-0.551,0.716-1.022,0.716-1.485c0-0.601-0.376-1.067-0.934-1.223c-0.782-0.312-1.721-0.228-2.839,0.255
		c-0.549,0.199-1.134,0.562-1.784,1.107c-1.249,0.523-3.454,2.056-6.732,4.68c-1.413,1.147-2.805,2.316-4.137,3.475
		c-1.344,1.168-2.638,2.351-3.896,3.567c0.016-0.051,0.038-0.093,0.064-0.127l0.102-0.165c0.861-1.939,1.896-3.868,3.077-5.734
		c1.183-1.871,2.612-3.78,4.211-5.634c0.272-0.272,0.417-0.615,0.417-0.991c0-0.502-0.477-1.009-1.393-0.729
		c-0.546,0.103-0.96,0.233-1.264,0.399c-0.339,0.185-0.611,0.435-0.811,0.745c-0.876,1.053-1.827,2.282-2.829,3.654
		c-1.001,1.369-2.095,2.965-3.249,4.741c-1.421,2.169-2.621,4.11-3.567,5.771c-0.457,0.309-0.925,0.615-1.41,0.923
		c-1.288,0.815-2.567,1.559-3.802,2.209c-1.184,0.624-2.171,1.021-2.928,1.18c-0.387,0.078-0.78,0.118-1.169,0.118h-0.301
		l-0.048,0.046c-0.167-0.035-0.263-0.111-0.35-0.196c-0.04-0.033-0.144-0.123-0.184-0.386l0.051-0.051v-0.311
		c0-0.312,0.124-0.944,0.716-2.178c0.533-1.109,0.877-1.842,1.033-2.199c0.166-0.382,0.272-0.645,0.32-0.787
		c0.037-0.113,0.085-0.235,0.144-0.372c0.063-0.149,0.266-0.562,0.606-1.243c0.349-0.696,0.928-1.8,1.735-3.307
		c0.812-1.517,1.966-3.68,3.468-6.508c0.314-0.63,0.475-1.229,0.475-1.784c0-0.253-0.034-0.487-0.111-0.719
		c-0.323-0.882-0.898-1.235-1.379-1.392c-0.657-0.164-1.134-0.097-1.668,0.081l-0.101,0.041c-0.656,0.328-1.069,0.905-1.182,1.604
		c-0.01,0.036-0.08,0.266-0.548,1.29c-0.351,0.764-0.786,1.681-1.31,2.749c-0.024,0.051-0.053,0.108-0.077,0.159
		c-0.169-0.332-0.513-0.547-0.962-0.547c-1.058,0-1.672-0.065-2.028-0.141c-0.803-1.722-1.693-2.56-2.714-2.56
		c-0.563,0-1.117,0.208-1.646,0.619c-0.552,0.429-0.868,0.903-0.94,1.408l-0.008,0.237c0,0.419,0.206,0.848,0.604,1.298
		c0.325,0.446,0.728,0.781,1.201,1.001c-0.272,2.97-1.469,5.852-3.558,8.57c-2.213,2.838-4.47,4.566-6.67,5.127
		c-0.17,0.034-0.341,0.051-0.511,0.051c-0.383,0-1.277,0-1.434-2.139c-0.037-0.223-0.057-0.445-0.057-0.668v-0.922
		c0-1.311,0.14-2.715,0.416-4.176c0.28-1.488,0.663-3.144,1.131-4.887c0.483-1.538,0.934-2.866,1.338-3.949
		c0.396-1.065,0.826-1.958,1.276-2.652l0.121-0.253v-0.222c0-0.152-0.054-0.921-1.104-1.071l-0.106-0.008
		c-0.392,0-0.829,0.036-1.298,0.107c-0.608,0.092-1.047,0.279-1.341,0.573l-0.105,0.133c-0.444,0.711-0.821,1.332-1.131,1.863
		c-0.306,0.521-0.575,1.037-0.804,1.533c-1.08,1.677-3.024,4.23-5.775,7.583c-1.657,1.962-3.143,3.623-4.412,4.937
		c-1.262,1.305-2.37,2.307-3.294,2.978l-0.09,0.076c-0.028,0.028-0.093,0.039-0.157,0.041c-0.006-0.038-0.012-0.093-0.012-0.169
		c0-0.044,0.009-0.172,0.09-0.412c0.293-0.84,0.767-1.893,1.407-3.13c0.648-1.253,1.501-2.694,2.539-4.294
		c1.403-2.238,2.489-3.96,3.257-5.167c1.187-1.863,1.3-2.143,1.323-2.208c0.184-0.366,0.276-0.723,0.276-1.06
		c0-0.744-0.457-1.54-1.738-1.54c-1.303,0-1.552,0.774-1.587,1.046c-0.025,0.111-0.19,0.612-1.26,2.377
		c-0.813,1.339-1.992,3.157-3.51,5.411c-1.541,2.333-2.771,4.347-3.657,5.985c-0.925,1.711-1.468,3.078-1.66,4.179l-0.011,0.195
		c0,0.534,0.297,1.061,0.878,1.584c0.599,0.6,1.102,0.879,1.585,0.879h0.264c1.068,0,2.303-0.596,3.769-1.816
		c1.478-1.209,3.138-2.88,4.935-4.966c1.475-1.711,3.095-3.746,4.831-6.066c-0.737,2.758-1.11,5.666-1.11,8.673
		c0,0.569,0.056,1.014,0.181,1.387c0.399,1.048,0.967,1.865,1.665,2.414c0.717,0.607,1.35,0.902,1.935,0.902h0.168l0.035-0.003
		c3.85-0.367,7.483-2.235,10.801-5.553c3.267-3.267,5.334-6.857,6.153-10.683c0.233-0.025,0.46-0.065,0.678-0.12l1.054-0.264
		l0.048-0.016c-0.291,0.604-0.593,1.236-0.907,1.897c-0.612,1.29-1.193,2.586-1.727,3.852c-0.534,1.27-0.985,2.489-1.342,3.623
		c-0.377,1.201-0.561,2.169-0.561,2.958c0,0.956,0.262,1.785,0.777,2.462c0.473,0.623,1.031,1.13,1.662,1.509
		c0.631,0.378,1.287,0.621,1.943,0.722c0.755,0.122,1.129,0.11,1.617-0.058c0.992-0.451,2.17-1.085,3.502-1.884
		c0.608-0.365,1.229-0.753,1.856-1.158c0.035,0.162,0.103,0.312,0.201,0.444c0.126,0.263,0.425,0.623,1.112,0.623h0.329l0.161-0.018
		c2.024-0.444,3.229-0.992,3.769-1.694c2.56-2.993,5.102-5.701,7.557-8.048c2.438-2.33,4.924-4.389,7.355-6.097
		c0.231-0.146,0.446-0.216,0.656-0.216c0.436,0,0.436,0.083,0.436,0.304c0,0.055-0.006,0.153-0.055,0.218
		c-1.283,1.771-2.504,3.618-3.626,5.49c-1.128,1.881-2.213,3.859-3.217,5.867c-0.455,0.872-0.812,1.534-1.092,2.056
		c-0.252,0.47-0.444,0.826-0.601,1.136c-0.207,0.438-0.651,1.432-0.65,1.433c-0.21,0.405-0.422,1.327,0.119,2.22
		c0.918,1.515,3.444,2.251,7.722,2.251c0.29,0,0.593-0.004,0.906-0.011c2.248-0.052,4.729-0.683,7.585-1.927
		c0.264-0.042,0.499-0.103,0.75-0.197c0.553-0.248,1.173-0.556,1.894-0.939c0.187-0.064,0.373-0.137,0.514-0.275
		c0.744-0.409,1.533-0.867,2.351-1.364c1.857-1.127,4.065-2.588,6.567-4.345c1.979-1.407,3.641-2.607,4.983-3.598
		c0.479-0.353,0.917-0.686,1.318-1c-0.12,0.464-0.257,0.956-0.411,1.479c-1.275,4.568-2.406,8.021-3.364,10.276
		c-13.023,2.5-25.657,6.167-37.556,10.9c-17.809,7.026-28.563,14.653-31.968,22.67c-0.738,1.754-1.112,3.514-1.112,5.231
		c0,5.398,2.778,10.317,8.254,14.618c4.988,3.954,10.509,5.959,16.407,5.959c0.5,0,1.01-0.023,1.497-0.068
		c18.62-1.196,34.64-20.467,47.618-57.28c2.408-0.516,5.147-0.89,8.149-1.114c3.189-0.238,6.816-0.359,10.78-0.359
		c1.001,0,1.904,0.01,2.714,0.033c0.799,0.021,1.501,0.053,2.099,0.095c2.539,0.208,2.539,1.385,2.539,1.888
		c0,1.697-1.215,3.694-3.61,5.938c-0.276,0.195-0.935,0.695-0.935,1.44c0,0.396,0.309,0.815,0.882,0.815
		c0.463,0,0.936-0.228,1.453-0.688c2.39-1.887,3.855-3.388,4.487-4.602c0.271-0.541,0.408-1.142,0.408-1.784
		c0-0.686-0.159-1.352-0.474-1.982C156.056,83.551,155.673,82.996,155.212,82.487z M58.16,118.345
		c2.812-7.029,11.394-13.92,25.5-20.478c11.479-5.209,24.998-9.509,40.199-12.785c-1.815,5.425-3.869,10.625-6.112,15.477
		c-2.412,5.214-5.112,10.263-8.026,15.005c-9.39,15.204-19.379,23.107-29.663,23.489h-1.186c-5.427,0-10.416-1.699-14.824-5.047
		c-4.396-3.391-6.625-7.335-6.625-11.725C57.423,120.973,57.673,119.644,58.16,118.345z M111.79,76.754
		c0.021-0.126,0.052-0.292,0.068-0.408c0.871-2.569,2.938-5.155,6.135-7.68c3.062-2.339,6.181-3.89,9.277-4.611
		c0.99-0.247,1.749-0.373,2.256-0.373c0.119,0,0.203,0.006,0.26,0.012c0.017,0.077,0.034,0.201,0.041,0.393
		c-0.062,0.191-0.062,0.377-0.062,0.492v0.54c-0.192,1.104-0.686,1.947-1.529,2.592c-0.872,0.784-1.978,1.691-3.284,2.697
		c-1.324,1.02-2.899,2.177-4.688,3.441c-6.053,4.332-7.397,4.669-7.666,4.669c-0.311,0-0.831,0-0.831-1.357
		C111.767,76.994,111.772,76.859,111.79,76.754z"/>
	<path fill="#1D1D1B" d="M77.419,28.228c0.649,0.607,1.115,0.866,1.556,0.866c0.185,0,0.46-0.055,0.711-0.306
		c0.179-0.173,0.276-0.414,0.276-0.681c0-0.44-0.259-0.906-0.858-1.548c-0.592-0.653-1.26-1.447-1.985-2.359
		c-0.705-0.883-1.341-1.863-1.89-2.914c-0.532-1.021-0.906-2.121-1.12-3.31c-0.082-0.351-0.123-0.709-0.123-1.064
		c0-0.729,0.129-1.458,0.386-2.173c0.521-1.506,1.394-2.775,2.593-3.772c1.24-1.031,2.714-1.866,4.38-2.481
		c1.697-0.625,3.549-1.066,5.494-1.311c1.641-0.186,3.304-0.279,4.943-0.279h0.972c1.922,0.062,3.767,0.227,5.484,0.489
		c1.697,0.26,3.146,0.593,4.313,0.99c3.689,1.22,6.626,2.958,8.729,5.165c2.087,2.193,3.402,4.591,3.907,7.109
		c0.149,0.838,0.226,1.672,0.226,2.478c0,1.76-0.365,3.564-1.083,5.36c-1.085,2.652-2.989,5.088-5.653,7.237
		c-1.032,0.819-2.21,1.566-3.5,2.22c-1.315,0.664-2.681,1.241-4.057,1.715c-1.369,0.473-2.762,0.82-4.161,1.039
		c-1.155,0.212-2.259,0.319-3.279,0.319c-0.15,0-0.301-0.014-0.549-0.047c-1.144-0.03-2.151-0.213-2.997-0.543
		c-0.77-0.3-1.303-0.738-1.65-1.379c-0.178-0.287-0.268-0.665-0.268-1.123v-0.311l-0.04-0.04c0.023-0.328,0.106-0.622,0.271-0.937
		c0.303-0.757,0.814-1.78,1.522-3.042c0.729-1.3,1.57-2.728,2.5-4.244c0.947-1.548,1.966-3.162,3.025-4.799
		c1.071-1.654,2.128-3.247,3.169-4.776c1.04-1.528,2.009-2.923,2.907-4.184c0.916-1.285,1.646-2.269,2.242-3.021
		c0.194-0.259,0.293-0.522,0.293-0.783c0-0.175-0.041-0.35-0.123-0.518l-0.081-0.166l-0.148-0.11
		c-0.458-0.338-1.176-0.408-2.047-0.07c-0.403,0.158-0.729,0.383-0.949,0.648c-0.552,0.616-1.206,1.441-1.944,2.453
		c-0.731,1.002-1.521,2.136-2.343,3.371c-0.832,1.246-1.698,2.603-2.576,4.031c-0.89,1.444-1.762,2.903-2.618,4.38
		c-0.867,1.493-1.701,2.984-2.479,4.433c-0.732,1.36-1.411,2.677-2.052,3.992c-1.56,0.265-1.737,1.422-1.737,1.936
		c0,0.443,0.108,0.948,0.313,1.487c0.027,0.098,0.054,0.184,0.08,0.26l-0.02-0.002l-0.806,2.298
		c-0.295,0.833-0.512,1.594-0.652,2.303c-0.037,0.262-0.055,0.486-0.055,0.675c0,1.144,0.844,1.177,0.939,1.177l0.354-0.047
		l0.068-0.067c0.344-0.132,0.684-0.488,0.828-1.315c0.151-0.634,0.31-1.18,0.473-1.623c0.074-0.202,0.15-0.407,0.228-0.615
		c0.596,1.014,1.409,1.767,2.426,2.245c2.389,1.127,5.446,1.069,8.783,0.214c1.622-0.419,3.209-0.939,4.719-1.549
		c1.507-0.608,2.929-1.275,4.227-1.981c1.297-0.703,2.369-1.358,3.194-1.951c2.205-1.623,4.024-3.428,5.407-5.363
		c1.392-1.949,2.364-3.988,2.89-6.056c0.331-1.263,0.499-2.539,0.499-3.795c0-0.789-0.067-1.611-0.2-2.443
		c-0.332-2.062-1.131-4.038-2.372-5.875c-1.229-1.821-2.92-3.505-5.023-5.005c-2.097-1.494-4.68-2.742-7.686-3.711
		c-1.269-0.391-2.909-0.703-4.885-0.931c-1.499-0.159-3.122-0.24-4.822-0.24h-1.444c-2.242,0.063-4.535,0.29-6.814,0.675
		c-2.309,0.387-4.468,1.019-6.416,1.879c-1.975,0.872-3.686,2.017-5.087,3.401c-1.448,1.432-2.373,3.193-2.747,5.233
		c-0.103,0.552-0.155,1.108-0.155,1.656c0,1.604,0.429,3.222,1.267,4.798C73.563,23.958,75.209,26.083,77.419,28.228z"/>
	<path fill="#1D1D1B" d="M122.812,23.77l0.323,0.012c0.647,0,1.328-0.347,2.061-1.04c0.892-0.784,1.4-1.503,1.554-2.192
		c0.051-0.135,0.076-0.272,0.076-0.41c0-0.427-0.186-0.828-0.552-1.194l-0.079-0.069c-0.385-0.289-0.808-0.436-1.258-0.436
		l-0.346,0.017c-0.608,0.13-1.289,0.605-2.129,1.484c-0.894,0.893-1.311,1.618-1.311,2.284
		C121.151,22.69,121.367,23.51,122.812,23.77z"/>
	<path fill="#1D1D1B" d="M116.514,33.816c-0.386,0.918-0.714,1.802-0.973,2.626c-0.278,0.887-0.414,1.604-0.414,2.194
		c0,0.734,0.203,1.374,0.604,1.9c0.355,0.469,0.777,0.852,1.255,1.139c0.476,0.285,0.975,0.47,1.474,0.547
		c0.238,0.039,0.438,0.058,0.597,0.058c0.238,0,0.439-0.028,0.689-0.115c0.727-0.331,1.582-0.791,2.542-1.367
		c0.949-0.569,1.913-1.192,2.864-1.854c0.94-0.652,1.812-1.291,2.594-1.896c0.081-0.062,0.159-0.125,0.236-0.185v0.113
		c0,0.705,0.18,1.361,0.521,1.93c0.357,0.644,0.812,1.207,1.351,1.673c0.546,0.475,1.158,0.826,1.768,1.027
		c0.682,0.284,1.389,0.352,1.977,0.237c0.616-0.103,1.264-0.284,1.926-0.538c0.639-0.246,1.26-0.52,1.844-0.812
		c0.59-0.295,1.14-0.603,1.632-0.914c0.49-0.311,0.914-0.596,1.219-0.821c0.496-0.299,0.601-0.67,0.601-0.928
		c0-0.194-0.066-0.354-0.125-0.473l-0.112-0.229l-0.229-0.112c-0.395-0.195-0.808-0.164-1.265,0.112
		c-0.821,0.456-1.815,0.902-2.958,1.328c-1.11,0.415-2.166,0.702-3.139,0.854h-0.274c-0.255,0-0.479-0.024-0.741-0.087
		c-0.282-0.043-0.517-0.141-0.715-0.298c-0.188-0.147-0.337-0.377-0.461-0.722c-0.118-0.283-0.179-0.647-0.179-1.085l-0.001-0.301
		c0.028-0.683,0.157-1.35,0.385-1.985c0.241-0.68,0.53-1.342,0.858-1.968c0.332-0.633,0.692-1.238,1.071-1.801
		c0.307-0.453,0.599-0.873,0.876-1.259h2.938c1.271,0,2.542-0.016,3.812-0.048c1.267-0.031,2.43-0.062,3.489-0.095
		c1.081-0.031,1.924-0.099,2.479-0.197c0.996-0.142,1.91-0.495,2.716-1.049c0.769-0.53,1.316-0.979,1.714-1.423
		c0.195-0.258,0.294-0.521,0.294-0.785c0-0.23-0.095-0.452-0.267-0.624l-0.314-0.22h-0.311c-0.318,0-0.612,0.157-0.876,0.467
		c-0.325,0.29-0.792,0.591-1.389,0.896c-0.59,0.303-1.177,0.483-1.768,0.539c-0.476,0.061-1.069,0.106-1.765,0.138
		c-0.705,0.03-1.466,0.055-2.283,0.07c-0.11,0.002-0.223,0.005-0.335,0.006c1.207-0.643,2.071-1.442,2.555-2.35
		c0.326-0.529,0.491-1.108,0.491-1.721l-0.005-0.32c-0.074-0.672-0.275-1.29-0.597-1.838c-0.339-0.577-0.812-1.031-1.43-1.361
		c-0.645-0.318-1.427-0.368-2.223-0.07c-1.172,0.469-2.487,1.279-3.911,2.409c-1.408,1.117-2.771,2.462-4.047,3.997
		c-1.28,1.539-2.382,3.224-3.272,5.006c-0.373,0.745-0.686,1.522-0.932,2.314c-0.114,0.09-0.232,0.195-0.354,0.317
		c-0.427,0.396-1.043,0.888-1.83,1.463c-0.806,0.589-1.686,1.186-2.615,1.774c-0.924,0.585-1.84,1.118-2.722,1.582
		c-0.837,0.439-1.529,0.72-2.052,0.83c-0.265,0.053-0.534,0.08-0.802,0.08h-0.299c-0.024-0.017-0.045-0.036-0.067-0.058
		c-0.015-0.013-0.026-0.031-0.036-0.054l0.015-0.325c0-0.167,0.064-0.58,0.494-1.477c0.386-0.802,0.634-1.332,0.747-1.591
		c0.122-0.281,0.2-0.475,0.239-0.589c0.025-0.077,0.059-0.159,0.094-0.242c0.046-0.106,0.189-0.402,0.434-0.89
		c0.25-0.501,0.666-1.293,1.247-2.375c0.585-1.092,1.416-2.65,2.5-4.691c0.241-0.483,0.363-0.947,0.363-1.379
		c0-0.206-0.028-0.396-0.093-0.589c-0.26-0.714-0.733-1.002-1.147-1.137c-0.545-0.131-0.896-0.073-1.312,0.065l-0.098,0.041
		c-0.535,0.268-0.871,0.736-0.959,1.287c-0.008,0.026-0.062,0.194-0.384,0.897c-0.251,0.548-0.563,1.206-0.94,1.975
		c-0.381,0.778-0.793,1.634-1.237,2.569C117.322,31.957,116.902,32.894,116.514,33.816z M142.44,22.573
		c0.048,0.068,0.056,0.196,0.056,0.269l0.003,0.079c-0.016,0.178-0.099,0.494-0.398,0.975c-0.329,0.494-0.787,0.957-1.361,1.376
		c-0.606,0.444-1.289,0.842-2.028,1.182s-1.533,0.602-2.357,0.778c-0.162,0.035-0.324,0.066-0.485,0.095
		c0.646-0.652,1.315-1.292,2-1.913c1.155-1.049,2.307-1.902,3.405-2.526c0.377-0.2,0.705-0.314,0.977-0.339v0.001
		C142.4,22.549,142.441,22.578,142.44,22.573z"/>
</g>
</svg>
